<svg xmlns="http://www.w3.org/2000/svg" viewBox="0 0 110 90" width="110" height="90">
  <defs>
    <style>@import url('https://fonts.googleapis.com/css2?family=Fira+Code:wght@700&amp;display=swap');</style>
  </defs>
  
  <svg x="0" y="5" width="118" height="80" viewBox="53 53 1297 875" preserveAspectRatio="xMidYMid meet">
    <path transform="translate(0,0)" fill="#8ab83d" d="M 108.545 53.2743 C 115.07 52.495 133.184 52.861 140.256 52.8561 L 202.971 52.8798 L 269.622 52.6431 C 280.405 52.6073 299.091 52.0556 309.397 53.5747 C 320.034 55.0748 330.138 59.1728 338.814 65.5062 C 351.358 74.6098 359.785 88.3111 362.252 103.613 C 363.816 113.815 362.816 155.923 362.854 168.681 L 363.07 225.303 C 363.122 240.208 364.588 257.177 358.852 271.128 C 349.597 293.638 331.349 305.966 307.786 309.616 C 297.12 310.518 280.959 310.013 269.715 310.017 L 202.166 310.057 L 144.401 310.05 C 121.696 310.034 98.9925 312.413 79.5658 298.397 C 65.7771 288.654 56.5551 273.712 54.028 257.019 C 52.0028 244.125 53.1135 205.907 53.0815 190.741 L 52.9248 140.163 C 52.9 129.51 52.3912 115.586 54.126 105.326 C 55.7813 95.3966 59.7519 85.9964 65.7162 77.8869 C 76.4164 63.3547 91.0223 56.032 108.545 53.2743 z"/>
<path transform="translate(0,0)" fill="#cff779" d="M 470.654 53.2167 C 479.614 52.5233 494.209 52.9645 503.497 52.9615 L 563.267 52.8191 L 629.679 52.6846 C 650.821 52.6781 676.257 50.2097 695.041 61.2448 C 731.148 82.4578 725.95 116.343 725.952 151.956 C 725.953 166.218 725.957 180.524 725.941 194.791 C 725.412 243.44 735.903 295.116 673.751 309.211 C 665.606 310.458 648.261 310.051 639.499 310.042 L 579.253 309.989 L 508.303 310.071 C 485.197 310.081 463.359 312.878 443.156 299.173 C 429.505 289.887 420.067 275.592 416.891 259.39 C 414.451 246.568 415.641 205.549 415.601 189.933 L 415.437 139.812 C 415.411 129.738 414.966 116 416.465 106.246 C 417.914 96.6839 421.513 87.5748 426.991 79.6042 C 437.739 64.0367 452.418 56.4518 470.654 53.2167 z"/>
<path transform="translate(0,0)" fill="#8ab83d" d="M 833.34 53.2708 C 844.709 52.4283 859.72 52.8797 871.463 52.8789 L 939.121 52.8365 L 997.471 52.6331 C 1008.15 52.6036 1023.93 52.107 1034.24 53.5652 C 1044.7 55.0095 1054.65 58.9758 1063.24 65.1223 C 1076.32 74.4632 1085.06 88.6999 1087.47 104.59 C 1089.05 115.106 1088.04 156.03 1088.08 169.005 L 1088.3 224.614 C 1088.33 233.597 1088.82 249.401 1087.5 257.95 C 1085.9 267.74 1081.97 277.001 1076.04 284.949 C 1065.13 299.632 1050.68 306.833 1032.95 309.582 C 1020.63 310.443 1004.51 310.028 991.788 310.03 L 921.282 310.022 L 866.243 310.054 C 855.405 310.047 845.292 310.18 834.473 309.342 C 808.117 308.147 782.009 284.049 779.08 257.665 C 776.797 237.107 778.093 212.058 778.046 190.801 L 777.877 139.762 C 777.85 129.484 777.369 115.682 778.988 105.771 C 780.585 95.8772 784.462 86.4904 790.314 78.3536 C 801.124 63.4602 815.57 56.2533 833.34 53.2708 z"/>
<path transform="translate(0,0)" fill="#cff779" d="M 292.735 362.332 C 294.481 362.245 296.229 362.191 297.977 362.169 L 418.546 362.094 C 427.001 362.093 435.617 361.837 444.054 362.095 C 475.644 363.061 502.505 356.525 527.166 381.319 C 535.232 389.271 540.785 399.417 543.134 410.498 C 545.761 422.552 544.572 457.099 544.511 471.116 L 544.721 553.298 C 544.556 585.884 523.277 618.384 488.25 618.167 C 476.538 617.871 463.096 619.395 451.015 619.506 L 346.489 619.63 C 326.989 619.691 300.703 620.228 281.86 617.111 C 250.906 611.99 233.26 579.89 234.043 550.726 C 234.923 517.955 233.684 486.586 234.081 453.972 C 234.236 441.211 233.202 427.528 235.27 415.204 C 236.956 404.763 241.188 394.898 247.592 386.481 C 259.183 371.36 274.309 364.735 292.735 362.332 z"/>
<path transform="translate(0,0)" fill="#8ab83d" d="M 655.719 362.343 C 667.028 361.83 679.989 362.128 691.414 362.121 L 789.736 362.087 C 812.984 362.087 840.976 360.348 863.429 365.095 C 882.511 369.129 901.807 390.176 905.759 408.938 C 907.603 417.696 907.205 427.283 907.145 436.257 C 906.417 477.178 907.497 518.163 907.133 559.067 C 907.021 575.546 900.201 591.269 888.246 602.612 C 877.976 612.489 864.561 618.363 850.25 618.169 C 839.01 617.919 825.693 619.385 814.015 619.486 L 711.09 619.579 C 689.342 619.665 666.841 619.56 645.206 617.198 C 637.607 616.368 628.718 611.376 622.685 606.95 C 604.615 593.696 596.721 573.231 597.017 551.269 C 597.235 519.065 597.103 486.988 597.029 454.799 C 597 442.141 596.26 427.505 598.315 415.174 C 599.996 404.745 604.219 394.892 610.612 386.483 C 622.167 371.393 637.317 364.7 655.719 362.343 z"/>
<path transform="translate(0,0)" fill="#cff779" d="M 1018.49 362.314 C 1019.67 362.26 1020.84 362.218 1022.02 362.19 C 1079.33 361.13 1137.14 362.807 1194.5 362.089 C 1202.54 361.988 1212.53 361.943 1220.31 363.836 C 1277.23 377.679 1270.16 424.356 1269.95 468.827 L 1270.14 542.065 C 1270.2 566.618 1270.16 582.392 1251.22 602.102 C 1241.76 611.941 1227.07 618.329 1213.25 618.169 C 1201.85 617.88 1188.35 619.399 1176.51 619.507 L 1072.88 619.625 C 1051.98 619.695 1030.02 619.408 1009.14 617.397 C 1001.1 616.622 992.022 612.067 985.554 607.293 C 972.06 597.364 963.083 582.464 960.612 565.894 C 958.81 552.922 959.942 515.638 959.912 500.34 L 959.743 450.719 C 959.703 440.024 959.207 424.978 960.887 414.803 C 962.548 404.563 966.706 394.89 972.993 386.639 C 984.703 371.299 999.85 364.699 1018.49 362.314 z"/>
<path transform="translate(0,0)" fill="#8ab83d" d="M 111.083 671.357 C 118.633 670.565 134.337 671.016 142.424 671.021 L 202.09 671.081 L 267.633 671.002 C 278.529 671.004 301.044 670.866 311.46 672.427 C 321.195 673.899 330.427 677.709 338.367 683.531 C 351.159 692.71 359.774 706.601 362.311 722.139 C 363.801 731.559 362.802 772.669 362.834 784.732 L 363.061 843.031 C 363.117 858.164 364.638 875.349 358.808 889.512 C 349.588 911.908 331.745 924.193 308.25 927.852 C 241.735 927.198 171.936 930.463 105.39 927.16 C 80.647 925.932 55.67 898.155 53.8058 873.878 C 52.2311 853.371 53.2573 829.311 53.0807 808.422 C 54.3018 783.417 50.0545 746.967 54.2162 723.235 C 55.9773 713.002 60.2198 703.358 66.5723 695.145 C 78.022 680.357 92.9082 673.613 111.083 671.357 z"/>
<path transform="translate(0,0)" fill="#cff779" d="M 486.326 671.553 C 490.28 671.238 495.483 671.118 499.475 671.095 L 606.283 671.03 C 627.341 671.035 648.391 670.749 669.413 672.053 C 685.71 673.064 696.258 678.686 707.942 689.68 C 730.762 711.151 725.982 742.933 725.832 771.373 L 725.968 839.507 C 726.056 866.438 728.782 889.433 707.44 910.343 C 691.055 926.397 675.516 928.073 654.261 927.937 C 617.502 929.306 578.279 927.932 541.13 928.368 C 516.567 927.328 488.118 930.329 464.035 926.353 C 435.309 921.609 415.097 892.289 415.656 864.314 C 416.223 835.955 414.517 807.839 415.455 779.906 C 416.484 749.291 409.203 714.644 432.757 690.841 C 449.796 673.372 463.498 672.17 486.326 671.553 z"/>
<path transform="translate(0,0)" fill="#8ab83d" d="M 858.357 671.45 L 859.34 671.388 C 863.383 671.15 868.402 671.224 872.54 671.311 C 927.878 672.597 985.711 668.564 1040.68 673.57 C 1065.71 675.851 1089.2 708.04 1088.06 732.12 C 1087.04 753.576 1089.19 777.323 1087.96 798.529 C 1086.59 822.345 1091.18 856.998 1086.68 878.959 C 1084.42 889.929 1079.19 900.067 1071.56 908.271 C 1053.31 927.721 1034.55 927.387 1010.7 927.949 L 896.086 928.021 C 876.546 928.025 857.026 928.272 837.517 927.339 C 822.133 926.602 810.788 922.315 799.25 912.016 C 785.108 899.394 778.598 883.193 778.226 864.499 C 777.711 838.645 778.157 812.798 778.01 786.941 C 778.171 771.52 776.919 734.784 779.607 721.463 C 781.915 710.405 787.146 700.169 794.755 691.819 C 814.404 670.398 832.689 672.381 858.357 671.45 z"/>
  </svg>
</svg>